<svg width="18" height="19" viewBox="0 0 18 19" fill="none" xmlns="http://www.w3.org/2000/svg">
<path d="M17.8249 7.7373H17.1V7.69995H9V11.2999H14.0864C13.3443 13.3956 11.3503 14.8999 9 14.8999C6.01785 14.8999 3.6 12.4821 3.6 9.49994C3.6 6.51781 6.01785 4.09998 9 4.09998C10.3765 4.09998 11.6289 4.61927 12.5824 5.46752L15.1281 2.92188C13.5207 1.42384 11.3706 0.5 9 0.5C4.02975 0.5 0 4.52972 0 9.49994C0 14.4702 4.02975 18.4999 9 18.4999C13.9702 18.4999 18 14.4702 18 9.49994C18 8.89649 17.9379 8.30745 17.8249 7.7373Z" fill="#FFC107"/>
<path d="M1.03784 5.31092L3.99479 7.47945C4.79489 5.49857 6.73259 4.09998 9.00014 4.09998C10.3767 4.09998 11.629 4.61927 12.5826 5.46752L15.1282 2.92188C13.5208 1.42384 11.3707 0.5 9.00014 0.5C5.54324 0.5 2.54534 2.45164 1.03784 5.31092Z" fill="#FF3D00"/>
<path d="M8.9998 18.4999C11.3245 18.4999 13.4368 17.6102 15.0338 16.1635L12.2483 13.8064C11.3447 14.4908 10.2215 14.8999 8.9998 14.8999C6.6589 14.8999 4.67125 13.4073 3.92245 11.3242L0.987549 13.5855C2.47705 16.5001 5.50195 18.4999 8.9998 18.4999Z" fill="#4CAF50"/>
<path d="M17.8249 7.73755H17.1V7.7002H9V11.3002H14.0864C13.73 12.3068 13.0824 13.1749 12.2472 13.8071C12.2476 13.8067 12.2481 13.8067 12.2485 13.8062L15.0341 16.1633C14.837 16.3424 18 14.0002 18 9.50018C18 8.89674 17.9379 8.30769 17.8249 7.73755Z" fill="#1976D2"/>
</svg>
